<svg width="15" height="12" viewBox="0 0 15 12" fill="none" xmlns="http://www.w3.org/2000/svg">
<path d="M14.1722 0H0.56689C0.416541 0 0.272351 0.0597258 0.166038 0.166038C0.0597257 0.272351 0 0.416541 0 0.56689V10.204C0 10.5047 0.119451 10.7931 0.332076 11.0057C0.544701 11.2183 0.833082 11.3378 1.13378 11.3378H13.6054C13.906 11.3378 14.1944 11.2183 14.4071 11.0057C14.6197 10.7931 14.7391 10.5047 14.7391 10.204V0.56689C14.7391 0.416541 14.6794 0.272351 14.5731 0.166038C14.4668 0.0597258 14.3226 0 14.1722 0ZM5.29404 5.6689L1.13378 9.48194V1.85585L5.29404 5.6689ZM6.13304 6.43774L6.98337 7.22076C7.08796 7.31676 7.22476 7.37003 7.36673 7.37003C7.5087 7.37003 7.6455 7.31676 7.75009 7.22076L8.60042 6.43774L12.7104 10.204H2.0245L6.13304 6.43774ZM9.44509 5.6689L13.6054 1.85515V9.48265L9.44509 5.6689Z" fill="white"/>
</svg>
