<svg width="16" height="16" viewBox="0 0 16 16" fill="none" xmlns="http://www.w3.org/2000/svg">
<path d="M7.82617 0C12.1482 4.58664e-05 15.6521 3.50416 15.6523 7.82617C15.6523 12.1484 12.1484 15.6523 7.82617 15.6523C3.50394 15.6523 0 12.1484 0 7.82617C0.000218008 3.50413 3.50408 0 7.82617 0ZM11.1729 2.93555C10.7432 2.93465 10.3189 3.0344 9.93457 3.22656C9.55033 3.41872 9.21603 3.69776 8.95898 4.04199H7.85254C7.59548 3.69774 7.26122 3.41872 6.87695 3.22656C6.49263 3.0344 6.06836 2.93465 5.63867 2.93555C5.57402 2.93559 5.5101 2.95205 5.4541 2.98438C5.39808 3.01675 5.35169 3.06408 5.31934 3.12012C5.12846 3.44951 5.00753 3.81506 4.96484 4.19336C4.9222 4.57166 4.95858 4.95473 5.07129 5.31836C4.84342 5.71609 4.72145 6.16567 4.7168 6.62402V6.99316C4.71757 7.61731 4.94398 8.22029 5.35449 8.69043C5.76499 9.1605 6.33192 9.46588 6.9502 9.55078C6.69778 9.87379 6.56129 10.2727 6.56152 10.6826V11.0508H5.4541C5.16082 11.0507 4.8793 10.9349 4.67188 10.7275C4.46432 10.52 4.34766 10.2379 4.34766 9.94434C4.34763 9.70217 4.2997 9.46201 4.20703 9.23828C4.11438 9.01476 3.97868 8.81175 3.80762 8.64062C3.63634 8.46934 3.43277 8.33293 3.20898 8.24023C2.98526 8.1476 2.74508 8.09961 2.50293 8.09961C2.40523 8.09971 2.31128 8.13891 2.24219 8.20801C2.17311 8.27714 2.13481 8.37102 2.13477 8.46875C2.13477 8.56647 2.17317 8.66033 2.24219 8.72949C2.31128 8.79859 2.40523 8.83779 2.50293 8.83789C2.79645 8.83789 3.07858 8.95456 3.28613 9.16211C3.49351 9.36959 3.6103 9.65098 3.61035 9.94434C3.61035 10.4335 3.80447 10.9031 4.15039 11.249C4.49618 11.5947 4.96514 11.7889 5.4541 11.7891H6.56152V12.5273C6.56165 12.625 6.59988 12.719 6.66895 12.7881C6.73813 12.8573 6.83282 12.8955 6.93066 12.8955H9.88184C9.97951 12.8954 10.0735 12.8572 10.1426 12.7881C10.2117 12.719 10.2499 12.625 10.25 12.5273V10.6826C10.2502 10.2727 10.1137 9.87379 9.86133 9.55078C10.4796 9.46589 11.0465 9.16053 11.457 8.69043C11.8676 8.22028 12.094 7.61733 12.0947 6.99316V6.62402C12.0902 6.16564 11.9685 5.7159 11.7402 5.31836C11.8531 4.9548 11.8893 4.57165 11.8467 4.19336C11.8041 3.81503 11.6831 3.44951 11.4922 3.12012C11.4598 3.06405 11.4135 3.01675 11.3574 2.98438C11.3014 2.95204 11.2375 2.93558 11.1729 2.93555Z" fill="white"/>
</svg>
