<svg width="15" height="15" viewBox="0 0 15 15" fill="none" xmlns="http://www.w3.org/2000/svg">
<path d="M13.0033 0H1.08361C0.79622 0 0.520599 0.114166 0.317383 0.317383C0.114166 0.520599 0 0.79622 0 1.08361V13.0033C0 13.2907 0.114166 13.5664 0.317383 13.7696C0.520599 13.9728 0.79622 14.087 1.08361 14.087H13.0033C13.2907 14.087 13.5664 13.9728 13.7696 13.7696C13.9728 13.5664 14.087 13.2907 14.087 13.0033V1.08361C14.087 0.79622 13.9728 0.520599 13.7696 0.317383C13.5664 0.114166 13.2907 0 13.0033 0ZM4.87625 10.2943C4.87625 10.438 4.81917 10.5758 4.71756 10.6774C4.61595 10.779 4.47814 10.8361 4.33445 10.8361C4.19075 10.8361 4.05294 10.779 3.95133 10.6774C3.84973 10.5758 3.79264 10.438 3.79264 10.2943V5.95987C3.79264 5.81617 3.84973 5.67836 3.95133 5.57675C4.05294 5.47514 4.19075 5.41806 4.33445 5.41806C4.47814 5.41806 4.61595 5.47514 4.71756 5.57675C4.81917 5.67836 4.87625 5.81617 4.87625 5.95987V10.2943ZM4.33445 4.87625C4.17371 4.87625 4.01658 4.82859 3.88293 4.73929C3.74928 4.64999 3.64512 4.52306 3.5836 4.37456C3.52209 4.22605 3.506 4.06264 3.53736 3.90499C3.56871 3.74734 3.64612 3.60253 3.75978 3.48887C3.87344 3.37521 4.01825 3.29781 4.1759 3.26645C4.33355 3.23509 4.49696 3.25119 4.64546 3.3127C4.79396 3.37421 4.92089 3.47838 5.01019 3.61203C5.09949 3.74568 5.14716 3.90281 5.14716 4.06355C5.14716 4.27909 5.06153 4.4858 4.90912 4.63822C4.75671 4.79063 4.54999 4.87625 4.33445 4.87625ZM10.8361 10.2943C10.8361 10.438 10.779 10.5758 10.6774 10.6774C10.5758 10.779 10.438 10.8361 10.2943 10.8361C10.1506 10.8361 10.0128 10.779 9.9112 10.6774C9.80959 10.5758 9.75251 10.438 9.75251 10.2943V7.85619C9.75251 7.49695 9.6098 7.15242 9.35578 6.8984C9.10176 6.64438 8.75723 6.50167 8.39799 6.50167C8.03875 6.50167 7.69423 6.64438 7.44021 6.8984C7.18619 7.15242 7.04348 7.49695 7.04348 7.85619V10.2943C7.04348 10.438 6.9864 10.5758 6.88479 10.6774C6.78318 10.779 6.64537 10.8361 6.50167 10.8361C6.35798 10.8361 6.22017 10.779 6.11856 10.6774C6.01695 10.5758 5.95987 10.438 5.95987 10.2943V5.95987C5.96054 5.82715 6.0099 5.6993 6.09858 5.60057C6.18726 5.50183 6.30909 5.43908 6.44097 5.42421C6.57285 5.40935 6.7056 5.4434 6.81404 5.51992C6.92247 5.59643 6.99906 5.71008 7.02926 5.83931C7.39578 5.59068 7.82311 5.44657 8.26535 5.42248C8.70759 5.39838 9.14805 5.4952 9.53941 5.70255C9.93078 5.9099 10.2583 6.21993 10.4867 6.59936C10.7152 6.97879 10.836 7.41329 10.8361 7.85619V10.2943Z" fill="white"/>
</svg>
